<?xml version="1.0" encoding="utf-8"?>
<!-- Generator: Adobe Illustrator 27.5.0, SVG Export Plug-In . SVG Version: 6.00 Build 0)  -->
<svg version="1.1" id="Capa_1" xmlns="http://www.w3.org/2000/svg" xmlns:xlink="http://www.w3.org/1999/xlink" x="0px" y="0px"
	 viewBox="0 0 2122 2122" style="enable-background:new 0 0 2122 2122;" xml:space="preserve">
<g>
	<g>
		<path style="fill:#191B27;" d="M1136.605,1879.04c-1.465-5.901-4.378-11.078-8.257-15.262
			c-8.404-9.066-21.371-13.449-34.156-10.274l-219.835,54.602c-18.685,4.641-30.177,23.727-25.536,42.413
			c4.641,18.685,23.727,30.177,42.412,25.536l219.836-54.602c12.785-3.175,22.194-13.116,25.38-25.06
			C1137.92,1890.879,1138.07,1884.941,1136.605,1879.04z"/>
	</g>
	<g>
		<g>
			<path style="fill:#6E7591;" d="M1249.767,708.281h-71.717v-47.807c-30.53-27.512-55.259-61.296-72.285-99.293h-66.731
				c-16.277,36.326-39.618,68.772-68.318,95.596v51.504h-75.683c-38.455,18.211-81.431,28.434-126.806,28.434
				c-45.376,0-88.351-10.223-126.806-28.434h-76.141v57.817h811.294v-29.383l0,0
				C1331.197,736.715,1288.222,726.492,1249.767,708.281z"/>
		</g>
		<g>
			<path style="fill:#494E63;" d="M1673.258,440.03c0-163.855-132.83-296.685-296.685-296.685s-296.685,132.831-296.685,296.685
				c0,43.172,9.297,84.149,25.877,121.152c17.026,37.997,41.755,71.781,72.285,99.293c21.331,19.222,45.467,35.376,71.717,47.807
				c38.455,18.211,81.43,28.434,126.806,28.434l0,0C1540.428,736.715,1673.258,603.885,1673.258,440.03z"/>
		</g>
		<g>
			<path style="fill:#494E63;" d="M895.032,708.281c27.904-13.214,53.387-30.667,75.683-51.504
				c28.7-26.824,52.041-59.27,68.318-95.596c16.581-37.003,25.878-77.979,25.878-121.152c0-163.855-132.83-296.685-296.685-296.685
				S471.54,276.175,471.54,440.03c0,118.479,69.469,220.702,169.88,268.252c38.455,18.211,81.43,28.434,126.806,28.434
				C813.6,736.715,856.576,726.492,895.032,708.281z"/>
		</g>
	</g>
	<g>
		<polygon style="fill:#494F6E;" points="231.894,971.948 231.894,1073.465 480.758,1095.72 480.758,995.073 		"/>
	</g>
	<g>
		<path style="fill:#363A50;" d="M1604.171,1641.453H540.627c-32.928,0-59.868-26.941-59.868-59.868V825.966
			c0-32.928,26.941-59.868,59.868-59.868h1063.544c32.928,0,59.868,26.941,59.868,59.868v755.619
			C1664.039,1614.513,1637.099,1641.453,1604.171,1641.453z"/>
	</g>
	<g>
		
			<ellipse transform="matrix(0.7071 -0.7071 0.7071 0.7071 92.0409 1102.2656)" style="fill:#252737;" cx="1376.573" cy="440.03" rx="61.4" ry="61.4"/>
	</g>
	<g>
		<path style="fill:#2F323F;" d="M1376.57,686.596c-135.956,0-246.562-110.609-246.562-246.567
			c0-135.956,110.606-246.565,246.562-246.565c135.956,0,246.567,110.609,246.567,246.565
			C1623.138,575.987,1512.526,686.596,1376.57,686.596z M1376.57,214.677c-124.258,0-225.349,101.091-225.349,225.352
			c0,124.261,101.091,225.354,225.349,225.354c124.263,0,225.354-101.093,225.354-225.354
			C1601.924,315.768,1500.833,214.677,1376.57,214.677z"/>
	</g>
	<g>
		
			<ellipse transform="matrix(0.2286 -0.9735 0.9735 0.2286 164.264 1087.3524)" style="fill:#252737;" cx="768.225" cy="440.03" rx="61.4" ry="61.4"/>
	</g>
	<g>
		<path style="fill:#2F323F;" d="M768.225,686.596c-135.956,0-246.567-110.609-246.567-246.567
			c0-135.956,110.611-246.565,246.567-246.565s246.567,110.609,246.567,246.565C1014.793,575.987,904.181,686.596,768.225,686.596z
			 M768.225,214.677c-124.263,0-225.354,101.091-225.354,225.352c0,124.261,101.091,225.354,225.354,225.354
			s225.354-101.093,225.354-225.354C993.579,315.768,892.488,214.677,768.225,214.677z"/>
	</g>
	<g>
		<circle style="fill:#252737;" cx="619.545" cy="1064.672" r="87.28"/>
	</g>
	<g>
		<circle style="fill:#494F6E;" cx="619.545" cy="1064.672" r="43.846"/>
	</g>
	<g>
		<path style="fill:#252737;" d="M83.983,933.959v83.062v9.129v83.062l147.911-35.748c0,0,0-23.181,0-47.315
			c0-3.029,0-6.086,0-9.129c0-24.133,0-45.073,0-45.073L83.983,933.959z"/>
	</g>
	<g>
		<path style="fill:#252737;" d="M1512.607,1345.994h-361.766c-32.928,0-59.868-26.941-59.868-59.868V959.459
			c0-32.928,26.941-59.868,59.868-59.868h361.766c32.928,0,59.868,26.941,59.868,59.868v326.667
			C1572.476,1319.053,1545.535,1345.994,1512.607,1345.994z"/>
	</g>
	<g>
		<path style="fill:#494F6E;" d="M1240.319,1490.138c0,23.401-18.971,42.372-42.372,42.372s-42.373-18.971-42.373-42.372
			c0-23.402,18.971-42.373,42.373-42.373S1240.319,1466.737,1240.319,1490.138z"/>
	</g>
	<g>
		<path style="fill:#2A2D3E;" d="M1197.079,1524.694c-7.93-0.813-15.637-3.674-21.473-9.232c-5.243-4.993-9.69-11.34-11.679-18.247
			c-3.701-12.851-1.002-27.398,9.364-41.505c-10.717,7.689-17.717,20.231-17.717,34.428c0,23.401,18.971,42.372,42.373,42.372
			c13.446,0,25.414-6.276,33.176-16.044C1220.393,1524.279,1208.939,1525.91,1197.079,1524.694z"/>
	</g>
	<g>
		<path style="fill:#6E7591;" d="M1227.588,1485.213c-3.85,4.744-13.895,2.971-22.437-3.96c-8.541-6.932-12.344-16.396-8.495-21.141
			c3.85-4.744,13.896-2.971,22.437,3.96C1227.635,1471.003,1231.438,1480.468,1227.588,1485.213z"/>
	</g>
	<g>
		<path style="fill:#494F6E;" d="M1374.097,1490.138c0,23.401-18.971,42.372-42.373,42.372c-23.402,0-42.372-18.971-42.372-42.372
			c0-23.402,18.971-42.373,42.372-42.373C1355.126,1447.765,1374.097,1466.737,1374.097,1490.138z"/>
	</g>
	<g>
		<path style="fill:#2A2D3E;" d="M1330.856,1524.694c-7.93-0.813-15.636-3.674-21.473-9.232c-5.243-4.993-9.689-11.34-11.678-18.247
			c-3.701-12.851-1.003-27.398,9.363-41.505c-10.717,7.689-17.717,20.231-17.717,34.428c0,23.401,18.971,42.372,42.372,42.372
			c13.446,0,25.414-6.276,33.176-16.044C1354.171,1524.279,1342.717,1525.91,1330.856,1524.694z"/>
	</g>
	<g>
		<path style="fill:#6E7591;" d="M1361.366,1485.213c-3.85,4.744-13.895,2.971-22.437-3.96c-8.541-6.932-12.344-16.396-8.494-21.141
			c3.85-4.744,13.895-2.971,22.437,3.96C1361.413,1471.003,1365.216,1480.468,1361.366,1485.213z"/>
	</g>
	<g>
		<path style="fill:#494F6E;" d="M1507.875,1490.138c0,23.401-18.971,42.372-42.372,42.372c-23.402,0-42.373-18.971-42.373-42.372
			c0-23.402,18.971-42.373,42.373-42.373C1488.904,1447.765,1507.875,1466.737,1507.875,1490.138z"/>
	</g>
	<g>
		<path style="fill:#2A2D3E;" d="M1464.634,1524.694c-7.929-0.813-15.636-3.674-21.472-9.232c-5.243-4.993-9.69-11.34-11.679-18.247
			c-3.701-12.851-1.002-27.398,9.364-41.505c-10.717,7.689-17.717,20.231-17.717,34.428c0,23.401,18.971,42.372,42.373,42.372
			c13.446,0,25.414-6.276,33.176-16.044C1487.948,1524.279,1476.495,1525.91,1464.634,1524.694z"/>
	</g>
	<g>
		<path style="fill:#6E7591;" d="M1495.144,1485.213c-3.85,4.744-13.896,2.971-22.437-3.96c-8.541-6.932-12.344-16.396-8.494-21.141
			c3.85-4.744,13.896-2.971,22.437,3.96C1495.191,1471.003,1498.994,1480.468,1495.144,1485.213z"/>
	</g>
	<g>
		<path style="fill:#252737;" d="M1572.475,1641.293H891.033v106.172h358.194c22.246-46.595,69.794-78.794,124.871-78.794
			c55.075,0,102.623,32.199,124.87,78.794h73.508V1641.293z"/>
	</g>
	<g>
		<path style="fill:#2C3042;" d="M1128.348,1863.777c3.879,4.184,6.792,9.361,8.257,15.262c1.465,5.901,1.315,11.84-0.156,17.353
			l113.614-28.219c-4.943-9.999-8.708-20.678-11.125-31.864L1128.348,1863.777z"/>
	</g>
	<g>
		<path style="fill:#32364B;" d="M1498.967,1747.464c-22.246-46.595-69.794-78.794-124.87-78.794
			c-55.077,0-102.624,32.199-124.871,78.794c-8.607,18.027-13.436,38.204-13.436,59.512c0,10.068,1.104,19.875,3.147,29.333
			c2.417,11.186,6.181,21.865,11.125,31.864c22.582,45.68,69.628,77.109,124.035,77.109c76.384,0,138.304-61.921,138.304-138.306
			C1512.402,1785.668,1507.574,1765.491,1498.967,1747.464z"/>
	</g>
	<g>
		
			<ellipse transform="matrix(0.1785 -0.9839 0.9839 0.1785 -649.1738 2836.3835)" style="fill:#494F6E;" cx="1374.097" cy="1806.976" rx="69.48" ry="69.48"/>
	</g>
	<g>
		<rect x="1664.039" y="1086.795" style="fill:#2C2F41;" width="145.562" height="271.049"/>
	</g>
	<g>
		<rect x="1664.039" y="1212.282" style="fill:#252737;" width="145.562" height="145.562"/>
	</g>
	<g>
		<path style="fill:#252737;" d="M2012.694,998.305l-203.092,89.462v134.318v134.318l203.092,89.462c0,0,24.642,9.933,24.642-15.619
			v-208.161v-208.16C2037.336,988.372,2012.694,998.305,2012.694,998.305z"/>
	</g>
	<g>
		<path style="fill:#171823;" d="M2014.84,1287.473c-25.454-10.272-49.73-24.088-69.36-43.493
			c-22.677-22.416-37.562-51.755-48.119-81.536c-11.764-33.179-18.174-68.332-19.82-103.466c-0.024-0.523,0.12-0.929,0.324-1.281
			l-68.263,30.071v268.635l203.091,89.462c0,0,24.643,9.933,24.643-15.62v-134.642
			C2029.755,1293.134,2022.241,1290.459,2014.84,1287.473z"/>
	</g>
</g>
</svg>
